REM DIRINDEX 1\2,1\3
REM DIRNAME folder01,folder02,folder03
TITLE ""
FILE "CD2Track12.mp3" MP3
  TRACK 01 AUDIO
    TITLE "0:"
    INDEX 01 00:00:00
  TRACK 02 AUDIO
    TITLE "2:cjc102_2777"
    INDEX 01 00:00:25
  TRACK 03 AUDIO
    TITLE "0:"
    INDEX 01 00:01:13
  TRACK 04 AUDIO
    TITLE "3:cjc102_2778"
    INDEX 01 00:01:38
  TRACK 05 AUDIO
    TITLE "0:"
    INDEX 01 00:03:00
  TRACK 06 AUDIO
    TITLE "3:cjc102_2779"
    INDEX 01 00:03:53
  TRACK 07 AUDIO
    TITLE "0:"
    INDEX 01 00:07:49
  TRACK 08 AUDIO
    TITLE "2:cjc102_2780"
    INDEX 01 00:07:51
  TRACK 09 AUDIO
    TITLE "0:"
    INDEX 01 00:08:56
  TRACK 10 AUDIO
    TITLE "3:cjc102_2781"
    INDEX 01 00:09:14
  TRACK 11 AUDIO
    TITLE "0:"
    INDEX 01 00:10:02
  TRACK 12 AUDIO
    TITLE "2:cjc102_2782"
    INDEX 01 00:10:04
  TRACK 13 AUDIO
    TITLE "0:"
    INDEX 01 00:11:07
  TRACK 14 AUDIO
    TITLE "3:cjc102_2783"
    INDEX 01 00:11:70
  TRACK 15 AUDIO
    TITLE "0:"
    INDEX 01 00:12:54
  TRACK 16 AUDIO
    TITLE "2:cjc102_2784"
    INDEX 01 00:13:16
  TRACK 17 AUDIO
    TITLE "0:"
    INDEX 01 00:14:19
  TRACK 18 AUDIO
    TITLE "3:cjc102_2785"
    INDEX 01 00:15:68
  TRACK 19 AUDIO
    TITLE "0:"
    INDEX 01 00:16:67
  TRACK 20 AUDIO
    TITLE "2:cjc102_2786"
    INDEX 01 00:17:12
  TRACK 21 AUDIO
    TITLE "0:"
    INDEX 01 00:18:52
  TRACK 22 AUDIO
    TITLE "3:cjc102_2787"
    INDEX 01 00:19:15
  TRACK 23 AUDIO
    TITLE "0:"
    INDEX 01 00:20:10
  TRACK 24 AUDIO
    TITLE "2:cjc102_2788"
    INDEX 01 00:20:45
  TRACK 25 AUDIO
    TITLE "0:"
    INDEX 01 00:21:49
  TRACK 26 AUDIO
    TITLE "3:cjc102_2789"
    INDEX 01 00:22:50
  TRACK 27 AUDIO
    TITLE "0:"
    INDEX 01 00:23:28
  TRACK 28 AUDIO
    TITLE "2:cjc102_2790"
    INDEX 01 00:24:04
  TRACK 29 AUDIO
    TITLE "0:"
    INDEX 01 00:25:13
  TRACK 30 AUDIO
    TITLE "3:cjc102_2791"
    INDEX 01 00:26:11
  TRACK 31 AUDIO
    TITLE "0:"
    INDEX 01 00:27:10
  TRACK 32 AUDIO
    TITLE "2:cjc102_2792"
    INDEX 01 00:27:39
  TRACK 33 AUDIO
    TITLE "0:"
    INDEX 01 00:28:43
  TRACK 34 AUDIO
    TITLE "3:cjc102_2793"
    INDEX 01 00:29:62
  TRACK 35 AUDIO
    TITLE "0:"
    INDEX 01 00:30:55
  TRACK 36 AUDIO
    TITLE "2:cjc102_2794"
    INDEX 01 00:31:14
  TRACK 37 AUDIO
    TITLE "0:"
    INDEX 01 00:32:23
  TRACK 38 AUDIO
    TITLE "3:cjc102_2795"
    INDEX 01 00:33:24
  TRACK 39 AUDIO
    TITLE "0:"
    INDEX 01 00:34:18
  TRACK 40 AUDIO
    TITLE "2:cjc102_2796"
    INDEX 01 00:34:71
  TRACK 41 AUDIO
    TITLE "0:"
    INDEX 01 00:36:03
  TRACK 42 AUDIO
    TITLE "3:cjc102_2797"
    INDEX 01 00:37:07
  TRACK 43 AUDIO
    TITLE "0:"
    INDEX 01 00:38:00
  TRACK 44 AUDIO
    TITLE "2:cjc102_2798"
    INDEX 01 00:38:53
  TRACK 45 AUDIO
    TITLE "0:"
    INDEX 01 00:39:60
  TRACK 46 AUDIO
    TITLE "3:cjc102_2799"
    INDEX 01 00:41:10
  TRACK 47 AUDIO
    TITLE "0:"
    INDEX 01 00:42:02
  TRACK 48 AUDIO
    TITLE "2:cjc102_2800"
    INDEX 01 00:42:47
  TRACK 49 AUDIO
    TITLE "0:"
    INDEX 01 00:43:58
  TRACK 50 AUDIO
    TITLE "3:cjc102_2801"
    INDEX 01 00:44:24
  TRACK 51 AUDIO
    TITLE "0:"
    INDEX 01 00:45:41
  TRACK 52 AUDIO
    TITLE "2:cjc102_2802"
    INDEX 01 00:46:19
  TRACK 53 AUDIO
    TITLE "0:"
    INDEX 01 00:47:21
  TRACK 54 AUDIO
    TITLE "3:cjc102_2803"
    INDEX 01 00:48:32
  TRACK 55 AUDIO
    TITLE "0:"
    INDEX 01 00:49:43
  TRACK 56 AUDIO
    TITLE "2:cjc102_2804"
    INDEX 01 00:49:55
  TRACK 57 AUDIO
    TITLE "0:"
    INDEX 01 00:50:68
  TRACK 58 AUDIO
    TITLE "3:cjc102_2805"
    INDEX 01 00:51:62
  TRACK 59 AUDIO
    TITLE "0:"
    INDEX 01 00:53:06
  TRACK 60 AUDIO
    TITLE "2:cjc102_2806"
    INDEX 01 00:53:19
  TRACK 61 AUDIO
    TITLE "0:"
    INDEX 01 00:54:32
  TRACK 62 AUDIO
    TITLE "3:cjc102_2807"
    INDEX 01 00:55:51
  TRACK 63 AUDIO
    TITLE "0:"
    INDEX 01 00:56:69
  TRACK 64 AUDIO
    TITLE "2:cjc102_2808"
    INDEX 01 00:57:19
  TRACK 65 AUDIO
    TITLE "0:"
    INDEX 01 00:58:34
  TRACK 66 AUDIO
    TITLE "3:cjc102_2809"
    INDEX 01 00:59:41
  TRACK 67 AUDIO
    TITLE "0:"
    INDEX 01 01:00:49
  TRACK 68 AUDIO
    TITLE "2:cjc102_2810"
    INDEX 01 01:01:07
  TRACK 69 AUDIO
    TITLE "0:"
    INDEX 01 01:02:12
  TRACK 70 AUDIO
    TITLE "2:cjc102_2811"
    INDEX 01 01:02:57
  TRACK 71 AUDIO
    TITLE "0:"
    INDEX 01 01:03:71
  TRACK 72 AUDIO
    TITLE "3:cjc102_2812"
    INDEX 01 01:04:62
  TRACK 73 AUDIO
    TITLE "0:"
    INDEX 01 01:06:00
  TRACK 74 AUDIO
    TITLE "2:cjc102_2813"
    INDEX 01 01:06:28
  TRACK 75 AUDIO
    TITLE "0:"
    INDEX 01 01:07:33
  TRACK 76 AUDIO
    TITLE "2:cjc102_2814"
    INDEX 01 01:08:13
  TRACK 77 AUDIO
    TITLE "0:"
    INDEX 01 01:09:26
  TRACK 78 AUDIO
    TITLE "3:cjc102_2815"
    INDEX 01 01:10:22
  TRACK 79 AUDIO
    TITLE "0:"
    INDEX 01 01:11:41
  TRACK 80 AUDIO
    TITLE "2:cjc102_2816"
    INDEX 01 01:11:47
  TRACK 81 AUDIO
    TITLE "0:"
    INDEX 01 01:12:52
  TRACK 82 AUDIO
    TITLE "2:cjc102_2817"
    INDEX 01 01:13:28
  TRACK 83 AUDIO
    TITLE "0:"
    INDEX 01 01:14:41
  TRACK 84 AUDIO
    TITLE "3:cjc102_2818"
    INDEX 01 01:15:60
  TRACK 85 AUDIO
    TITLE "0:"
    INDEX 01 01:17:00
  TRACK 86 AUDIO
    TITLE "2:cjc102_2819"
    INDEX 01 01:17:08
  TRACK 87 AUDIO
    TITLE "0:"
    INDEX 01 01:19:60
  TRACK 88 AUDIO
    TITLE "3:cjc102_2820"
    INDEX 01 01:20:73
  TRACK 89 AUDIO
    TITLE "0:"
    INDEX 01 01:22:13
  TRACK 90 AUDIO
    TITLE "2:cjc102_2821"
    INDEX 01 01:22:21
  TRACK 91 AUDIO
    TITLE "0:"
    INDEX 01 01:25:41
  TRACK 92 AUDIO
    TITLE "3:cjc102_2822"
    INDEX 01 01:27:14
  TRACK 93 AUDIO
    TITLE "0:"
    INDEX 01 01:28:25
  TRACK 94 AUDIO
    TITLE "2:cjc102_2823"
    INDEX 01 01:28:27
  TRACK 95 AUDIO
    TITLE "0:"
    INDEX 01 01:32:39
  TRACK 96 AUDIO
    TITLE "3:cjc102_2824"
    INDEX 01 01:33:42
  TRACK 97 AUDIO
    TITLE "0:"
    INDEX 01 01:34:73
  TRACK 98 AUDIO
    TITLE "2:cjc102_2825"
    INDEX 01 01:35:16
  TRACK 99 AUDIO
    TITLE "0:"
    INDEX 01 01:36:31
  TRACK 100 AUDIO
    TITLE "3:cjc102_2826"
    INDEX 01 01:37:52
  TRACK 101 AUDIO
    TITLE "0:"
    INDEX 01 01:38:73
  TRACK 102 AUDIO
    TITLE "2:cjc102_2827"
    INDEX 01 01:39:04
  TRACK 103 AUDIO
    TITLE "0:"
    INDEX 01 01:40:11
  TRACK 104 AUDIO
    TITLE "3:cjc102_2828"
    INDEX 01 01:41:52
  TRACK 105 AUDIO
    TITLE "0:"
    INDEX 01 01:42:65
  TRACK 106 AUDIO
    TITLE "2:cjc102_2829"
    INDEX 01 01:42:67
  TRACK 107 AUDIO
    TITLE "0:"
    INDEX 01 01:43:74
  TRACK 108 AUDIO
    TITLE "3:cjc102_2830"
    INDEX 01 01:45:32
  TRACK 109 AUDIO
    TITLE "0:"
    INDEX 01 01:46:61
  TRACK 110 AUDIO
    TITLE "2:cjc102_2831"
    INDEX 01 01:46:74
  TRACK 111 AUDIO
    TITLE "0:"
    INDEX 01 01:48:03
